<?xml version="1.0" encoding="UTF-8"?>
<svg xmlns="http://www.w3.org/2000/svg" xmlns:xlink="http://www.w3.org/1999/xlink" width="32px" height="32px" viewBox="0 0 32 32" version="1.1">
<g id="surface1">
<path style=" stroke:none;fill-rule:evenodd;fill:rgb(0%,0%,0%);fill-opacity:1;" d="M 24.523438 29.492188 C 21.734375 29.492188 19.929688 28.160156 19.046875 26.417969 L 21.496094 25 C 22.140625 26.054688 22.976562 26.828125 24.460938 26.828125 C 25.707031 26.828125 26.5 26.203125 26.5 25.34375 C 26.5 24.054688 24.777344 23.546875 23.558594 23.027344 C 21.390625 22.101562 19.949219 20.941406 19.949219 18.492188 C 19.949219 16.238281 21.667969 14.519531 24.355469 14.519531 C 26.265625 14.519531 27.640625 15.1875 28.628906 16.925781 L 26.285156 18.429688 C 25.769531 17.503906 25.210938 17.140625 24.355469 17.140625 C 23.472656 17.140625 22.914062 17.699219 22.914062 18.429688 C 22.914062 19.332031 23.472656 19.695312 24.761719 20.253906 C 27.464844 21.414062 29.507812 22.324219 29.507812 25.300781 C 29.507812 28.007812 27.382812 29.492188 24.523438 29.492188 Z M 17.601562 24.957031 C 17.601562 28.074219 15.679688 29.71875 13.019531 29.71875 C 10.609375 29.71875 9.167969 28.800781 8.460938 27.199219 L 8.417969 27.199219 L 10.867188 25.488281 C 11.335938 26.328125 11.761719 26.921875 12.792969 26.921875 C 13.78125 26.921875 14.398438 26.417969 14.398438 24.917969 L 14.398438 14.398438 L 17.601562 14.398438 Z M 0 32 L 32 32 L 32 0 L 0 0 Z M 0 32 "/>
</g>
</svg>
