<?xml version="1.0" encoding="UTF-8"?>
<svg xmlns="http://www.w3.org/2000/svg" xmlns:xlink="http://www.w3.org/1999/xlink" width="32px" height="32px" viewBox="0 0 32 32" version="1.1">
<g id="surface1">
<path style=" stroke:none;fill-rule:nonzero;fill:rgb(0%,0%,0%);fill-opacity:1;" d="M 16 5.332031 C 13.8125 5.332031 11.929688 5.925781 10.453125 7.191406 C 8.984375 8.445312 8.027344 10.277344 7.496094 12.558594 C 7.378906 13.054688 7.632812 13.566406 8.097656 13.773438 C 8.566406 13.980469 9.113281 13.832031 9.40625 13.410156 C 10.082031 12.445312 10.757812 11.867188 11.40625 11.570312 C 12.03125 11.28125 12.710938 11.222656 13.484375 11.429688 C 14.265625 11.640625 14.871094 12.253906 15.820312 13.285156 L 15.851562 13.320312 C 16.570312 14.097656 17.441406 15.050781 18.636719 15.789062 C 19.878906 16.550781 21.421875 17.066406 23.46875 17.066406 C 25.65625 17.066406 27.539062 16.476562 29.015625 15.210938 C 30.480469 13.953125 31.441406 12.125 31.972656 9.84375 C 32.089844 9.34375 31.835938 8.835938 31.367188 8.625 C 30.902344 8.417969 30.351562 8.570312 30.058594 8.988281 C 29.382812 9.953125 28.710938 10.53125 28.0625 10.832031 C 27.433594 11.117188 26.757812 11.175781 25.984375 10.96875 C 25.199219 10.761719 24.59375 10.148438 23.644531 9.113281 L 23.613281 9.078125 C 22.898438 8.300781 22.023438 7.351562 20.828125 6.613281 C 19.589844 5.847656 18.046875 5.332031 16 5.332031 Z M 16 5.332031 "/>
<path style=" stroke:none;fill-rule:nonzero;fill:rgb(0%,0%,0%);fill-opacity:1;" d="M 8.535156 14.933594 C 6.34375 14.933594 4.464844 15.523438 2.984375 16.789062 C 1.519531 18.046875 0.558594 19.875 0.0273438 22.15625 C -0.0898438 22.65625 0.164062 23.164062 0.632812 23.375 C 1.097656 23.582031 1.648438 23.429688 1.941406 23.011719 C 2.617188 22.046875 3.289062 21.46875 3.9375 21.167969 C 4.566406 20.882812 5.242188 20.824219 6.015625 21.03125 C 6.800781 21.238281 7.40625 21.851562 8.355469 22.886719 L 8.386719 22.921875 C 9.101562 23.699219 9.976562 24.648438 11.171875 25.386719 C 12.410156 26.152344 13.953125 26.667969 16 26.667969 C 18.1875 26.667969 20.070312 26.074219 21.546875 24.808594 C 23.015625 23.554688 23.972656 21.722656 24.503906 19.441406 C 24.621094 18.945312 24.367188 18.433594 23.902344 18.226562 C 23.433594 18.019531 22.886719 18.167969 22.59375 18.589844 C 21.917969 19.554688 21.242188 20.132812 20.59375 20.429688 C 19.96875 20.71875 19.289062 20.777344 18.515625 20.570312 C 17.734375 20.359375 17.128906 19.746094 16.179688 18.714844 L 16.148438 18.679688 C 15.429688 17.902344 14.558594 16.949219 13.363281 16.210938 C 12.121094 15.449219 10.578125 14.933594 8.535156 14.933594 Z M 8.535156 14.933594 "/>
</g>
</svg>
